<svg width="77" height="39" viewBox="0 0 77 39" fill="none" xmlns="http://www.w3.org/2000/svg">
<path d="M0.321023 18.2386V15.7528C1.93087 15.7528 3.05303 15.4261 3.6875 14.7727C4.33144 14.1098 4.65341 13.035 4.65341 11.5483V7.92614C4.65341 6.32576 4.85227 5.0142 5.25 3.99148C5.6572 2.96875 6.24905 2.17329 7.02557 1.60511C7.80208 1.03693 8.74905 0.643938 9.86648 0.426135C10.9839 0.198863 12.2528 0.0852275 13.6733 0.0852275V4.03409C12.5559 4.03409 11.6989 4.19034 11.1023 4.50284C10.5057 4.80587 10.0938 5.27462 9.86648 5.90909C9.64867 6.54356 9.53977 7.35322 9.53977 8.33807V12.9972C9.53977 13.7263 9.41667 14.4081 9.17045 15.0426C8.92424 15.6771 8.47443 16.2358 7.82102 16.7188C7.16761 17.1922 6.23485 17.5663 5.02273 17.8409C3.82008 18.1061 2.25284 18.2386 0.321023 18.2386ZM13.6733 36.179C12.2528 36.179 10.9839 36.0653 9.86648 35.8381C8.74905 35.6203 7.80208 35.2273 7.02557 34.6591C6.24905 34.0909 5.6572 33.2955 5.25 32.2727C4.85227 31.25 4.65341 29.9384 4.65341 28.3381V24.7301C4.65341 23.2434 4.33144 22.1733 3.6875 21.5199C3.05303 20.857 1.93087 20.5256 0.321023 20.5256V18.0398C2.25284 18.0398 3.82008 18.1771 5.02273 18.4517C6.23485 18.7169 7.16761 19.0909 7.82102 19.5739C8.47443 20.0473 8.92424 20.6013 9.17045 21.2358C9.41667 21.8703 9.53977 22.5473 9.53977 23.267V27.9261C9.53977 28.911 9.64867 29.7206 9.86648 30.3551C10.0938 30.9896 10.5057 31.4631 11.1023 31.7756C11.6989 32.0881 12.5559 32.2443 13.6733 32.2443V36.179ZM0.321023 20.5256V15.7528H4.82386V20.5256H0.321023ZM22.0717 23.1534L22.0575 16.946H22.8814L30.7223 8.18182H36.7308L27.0859 18.9205H26.0206L22.0717 23.1534ZM17.3842 30V0.90909H22.5263V30H17.3842ZM31.0774 30L23.9751 20.071L27.4411 16.4489L37.228 30H31.0774ZM40.1577 38.1818V8.18182H45.2145V11.7898H45.5128C45.7779 11.2595 46.152 10.696 46.6349 10.0994C47.1179 9.49337 47.7713 8.97727 48.5952 8.55114C49.419 8.11553 50.4702 7.89773 51.7486 7.89773C53.4342 7.89773 54.9541 8.3286 56.3082 9.19034C57.6719 10.0426 58.7514 11.3068 59.5469 12.983C60.3518 14.6496 60.7543 16.6951 60.7543 19.1193C60.7543 21.5152 60.3613 23.5511 59.5753 25.2273C58.7893 26.9034 57.7192 28.1818 56.3651 29.0625C55.0109 29.9432 53.4768 30.3835 51.7628 30.3835C50.5128 30.3835 49.4759 30.1752 48.652 29.7585C47.8281 29.3419 47.1652 28.84 46.6634 28.2528C46.1709 27.6562 45.7874 27.0928 45.5128 26.5625H45.2997V38.1818H40.1577ZM45.2003 19.0909C45.2003 20.5019 45.3991 21.7377 45.7969 22.7983C46.2041 23.8589 46.7865 24.6875 47.544 25.2841C48.3111 25.8712 49.2391 26.1648 50.3281 26.1648C51.4645 26.1648 52.4162 25.8617 53.1832 25.2557C53.9503 24.6402 54.5279 23.8021 54.9162 22.7415C55.3139 21.6714 55.5128 20.4545 55.5128 19.0909C55.5128 17.7367 55.3187 16.5341 54.9304 15.483C54.5421 14.4318 53.9645 13.608 53.1974 13.0114C52.4304 12.4148 51.474 12.1165 50.3281 12.1165C49.2296 12.1165 48.2969 12.4053 47.5298 12.983C46.7628 13.5606 46.1804 14.3703 45.7827 15.4119C45.3944 16.4536 45.2003 17.6799 45.2003 19.0909ZM76.4254 18.0398V20.5256C74.8156 20.5256 73.6887 20.857 73.0447 21.5199C72.4103 22.1733 72.093 23.2434 72.093 24.7301V28.3381C72.093 29.9384 71.8894 31.25 71.4822 32.2727C71.0845 33.2955 70.4974 34.0909 69.7209 34.6591C68.9444 35.2273 67.9974 35.6203 66.88 35.8381C65.7625 36.0653 64.4936 36.179 63.0732 36.179V32.2443C64.1906 32.2443 65.0476 32.0881 65.6442 31.7756C66.2408 31.4631 66.648 30.9896 66.8658 30.3551C67.093 29.7206 67.2067 28.911 67.2067 27.9261V23.267C67.2067 22.5473 67.3298 21.8703 67.576 21.2358C67.8222 20.6013 68.272 20.0473 68.9254 19.5739C69.5788 19.0909 70.5069 18.7169 71.7095 18.4517C72.9216 18.1771 74.4936 18.0398 76.4254 18.0398ZM63.0732 0.0852275C64.4936 0.0852275 65.7625 0.198863 66.88 0.426135C67.9974 0.643938 68.9444 1.03693 69.7209 1.60511C70.4974 2.17329 71.0845 2.96875 71.4822 3.99148C71.8894 5.0142 72.093 6.32576 72.093 7.92614V11.5483C72.093 13.035 72.4103 14.1098 73.0447 14.7727C73.6887 15.4261 74.8156 15.7528 76.4254 15.7528V18.2386C74.4936 18.2386 72.9216 18.1061 71.7095 17.8409C70.5069 17.5663 69.5788 17.1922 68.9254 16.7188C68.272 16.2358 67.8222 15.6771 67.576 15.0426C67.3298 14.4081 67.2067 13.7263 67.2067 12.9972V8.33807C67.2067 7.35322 67.093 6.54356 66.8658 5.90909C66.648 5.27462 66.2408 4.80587 65.6442 4.50284C65.0476 4.19034 64.1906 4.03409 63.0732 4.03409V0.0852275ZM76.4254 15.7528V20.5256H71.9226V15.7528H76.4254Z" fill="white"/>
</svg>
