<svg width="820" height="567" viewBox="0 0 820 567" fill="none" xmlns="http://www.w3.org/2000/svg">
<g clip-path="url(#clip0_208_2)">
<path d="M757.525 454.333C745.687 526.492 735.983 538.322 727.831 545.88C727.207 548.576 720.685 546.856 701.271 547.329C584.424 547.329 105.899 547.553 105.724 547.553C105.741 547.569 54.5671 502.278 48.2237 421.731C38.2344 317.711 94.2763 190.436 170.899 154.507C215.612 131.175 279.118 125.689 325.637 152.644C371.896 176.112 392.55 196.349 431.411 235.932C478.087 275.202 506.021 302.606 586.993 319.953C714.788 345.347 753.946 371.998 757.525 454.333Z" fill="url(#paint0_linear_208_2)"/>
<path d="M590.393 23.941C728.358 177.199 814.635 331.179 698.822 404.235C425.359 576.74 490.15 634.177 490.15 634.177C490.15 634.177 513.887 673.313 555.812 616.613C597.737 559.913 622.712 545.452 760.661 503.686C898.609 461.92 887.511 265.319 887.511 265.319M438.977 663.76C438.977 663.76 460.556 492.427 283.609 490.578C106.662 488.729 5.5488 480.101 -24.0452 362.387C-53.6392 244.673 119.634 297.949 279.305 379.165C438.977 460.379 619.624 389.504 577.083 163.321C534.541 -62.863 291.316 -89.6723 315.977 -7.08748C340.639 75.4973 587.872 229.573 473.004 338.812C364.524 441.977 -73.6768 -7.08748 -73.6768 -7.08748" stroke="#4A90E2" stroke-width="7" stroke-miterlimit="10"/>
<path d="M438.977 663.76C438.977 663.76 460.556 492.427 283.609 490.578C106.662 488.729 5.5488 480.101 -24.0452 362.387C-53.6392 244.673 119.634 297.949 279.305 379.165C438.977 460.379 619.624 389.504 577.083 163.321C534.541 -62.863 291.316 -89.6723 315.977 -7.08748C340.639 75.4973 587.872 229.573 473.004 338.812C364.524 441.977 -73.6768 -7.08748 -73.6768 -7.08748" stroke="white" stroke-width="7" stroke-miterlimit="10"/>
<path d="M23.1656 378.692C13.0829 394.637 9.6935 470.607 61.719 477.552C61.719 477.552 82.7731 480.756 89.6735 505.625C96.5746 530.495 136.099 568.895 174.096 541.49C212.093 514.084 188.189 460.523 167.548 445.216C146.907 429.908 149.613 429.207 137.672 412.309C125.73 395.412 124.572 394.38 114.965 399.315C105.357 404.251 116.576 427.779 128.271 440.296C139.965 452.815 129.51 462.191 125.005 460.249C120.501 458.307 115.006 438.849 91.9474 439.054C68.8891 439.257 64.1781 414.265 61.1824 400.157C59.9724 394.456 57.6244 389.27 55.2567 385.11C54.1751 386.326 52.7336 387.106 51.111 387.198C47.4825 387.403 44.3441 384.093 44.1014 379.806C43.9644 377.386 44.7808 375.172 46.1694 373.665C43.8371 372.245 39.7731 370.301 35.3086 370.552C31.2591 370.781 26.8814 372.817 23.1656 378.692Z" fill="url(#paint1_linear_208_2)"/>
<g style="mix-blend-mode:overlay" opacity="0.34">
<g style="mix-blend-mode:overlay">
<path d="M181.745 534.756C179.073 530.222 175.962 525.994 171.975 521.821C164.411 509.304 162.074 497.136 159.798 485.27C156.987 470.621 154.333 456.784 142.485 443.212C124.699 422.838 120.953 405.028 120.213 397.05C119.537 397.237 118.815 397.504 118.036 397.84C118.875 406.399 122.915 424.13 140.832 444.654C152.291 457.779 154.891 471.334 157.644 485.684C159.59 495.831 161.578 506.195 166.753 516.837C153.702 505.41 132.704 493.646 94.5694 476.37C57.1237 459.408 41.7618 430.59 35.4687 409.403C30.6696 393.248 30.2593 378.953 30.4484 371.789C29.705 372.14 28.9637 372.569 28.2304 373.099C28.131 380.78 28.7779 394.541 33.3406 409.944C39.7558 431.597 55.4295 461.047 93.663 478.367C137.129 498.058 158.068 510.706 170.086 522.953C172.749 527.354 176.043 531.805 180.192 536.308L180.207 536.295C180.214 536.307 180.221 536.32 180.227 536.331C180.753 535.816 181.263 535.296 181.755 534.768L181.745 534.756Z" fill="#690058"/>
</g>
</g>
<path d="M75.0661 347.763C56.2707 360.331 74.3209 391.133 92.7161 406.667C111.112 422.202 119.026 434.507 116.453 489.016C113.881 543.525 156.604 545.673 166.637 544.404C176.669 543.135 198.694 520.09 193.694 483.441C188.694 446.792 167.81 443.799 179.036 403.66C190.263 363.52 159.253 372.898 147.763 386.338C136.274 399.779 129.26 396.47 119.123 377.974C115.853 372.006 113.268 367.439 111.262 363.979C110.698 365.801 110.007 367.492 109.097 368.873C108.486 369.799 107.617 370.452 106.647 370.8C105.235 371.307 103.609 371.166 102.26 370.277C99.9839 368.778 99.3545 365.717 100.855 363.442C101.985 361.728 102.849 356.993 103.42 353.861C103.534 353.236 103.642 352.649 103.748 352.089C101.112 348.867 95.4103 343.361 87.3114 343.494C83.6891 343.552 79.5885 344.74 75.0661 347.763Z" fill="url(#paint2_linear_208_2)"/>
<g style="mix-blend-mode:overlay" opacity="0.34">
<g style="mix-blend-mode:overlay">
<path d="M165.589 375.336C159.452 389.585 142.134 435.23 149.119 482.417C146.933 475.329 144.83 467.447 142.909 458.7C130.027 400.088 82.6618 360.338 71.0859 351.366C70.6144 351.938 70.1764 352.525 69.7949 353.138C81.2373 362.011 128.05 401.307 140.765 459.171C151.469 507.878 167.449 530.618 175.671 539.617C176.222 539.151 176.776 538.652 177.332 538.122C174.891 535.431 171.707 531.454 168.157 525.834C164.3 519.728 159.615 511.005 154.94 499.115C139.582 445.314 162.109 388.613 168.179 374.883C167.33 374.977 166.464 375.131 165.589 375.336Z" fill="#690058"/>
</g>
</g>
<path d="M153.754 529.78L150.315 531.428L85.835 396.795L123.883 325.775L127.243 327.574L90.1082 396.891L153.754 529.78Z" fill="#253138"/>
<path d="M83.4661 399.775C85.0864 402.263 88.4176 402.966 90.906 401.347C93.3949 399.727 94.0984 396.397 92.4781 393.909C90.8572 391.422 87.5267 390.719 85.0377 392.339C82.5493 393.958 81.8459 397.287 83.4661 399.775Z" fill="#2D3092"/>
<path d="M120.427 330.017C122.047 332.504 125.377 333.209 127.866 331.589C130.355 329.969 131.059 326.639 129.438 324.151C127.818 321.664 124.486 320.96 121.997 322.58C119.509 324.2 118.806 327.529 120.427 330.017Z" fill="#2D3092"/>
<path d="M159.487 322.766L141.216 355.931L126.608 344.525L122.235 341.106C119.628 339.067 118.885 335.437 120.485 332.538L128.641 317.752C130.239 314.855 133.706 313.545 136.822 314.66L142.048 316.53L159.487 322.766Z" fill="#00A0ED"/>
<path d="M159.487 322.766L141.216 355.931L126.608 344.525L142.048 316.53L159.487 322.766Z" fill="#0000C6" fill-opacity="0.2"/>
<path d="M195.13 333.87L169.642 380.114C167.978 383.133 163.992 383.916 161.309 381.752L140.425 364.909C134.125 359.828 132.38 350.959 136.287 343.871L146.66 325.05C150.567 317.962 158.998 314.698 166.662 317.306L192.062 325.954C195.325 327.064 196.793 330.852 195.13 333.87Z" fill="#00A0ED"/>
<path d="M184.043 543.076H118.838C121.162 531.183 131.587 522.602 143.71 522.602H159.171C171.293 522.602 181.719 531.183 184.043 543.076Z" fill="url(#paint3_linear_208_2)"/>
<path d="M460.466 330.012C460.466 330.012 425.077 338.543 403.371 355.605C381.665 372.668 366.758 459.402 366.758 459.402C366.758 459.402 354.639 462.245 356.802 473.621C356.802 473.621 377.056 470.862 387.554 492.56C390.114 497.82 392.077 504.532 393.044 513.063C393.044 513.063 403.741 512.381 404.423 503.11C404.423 503.11 414.039 493.498 416.4 475.327C416.457 474.986 416.514 474.673 416.543 474.331C416.543 474.331 417.609 523.983 412.261 542.581L562.005 542.684L593.249 542.581C593.249 542.581 596.196 533.476 594.544 527.444C594.544 527.444 605.534 512.294 594.344 493.984C594.344 493.984 596.819 390.782 582.595 366.27C568.371 341.757 496.909 327.537 496.909 327.537L460.466 330.012Z" fill="url(#paint4_linear_208_2)"/>
<g style="mix-blend-mode:multiply">
<g style="mix-blend-mode:multiply">
<path d="M416.228 475.202C413.867 493.373 404.251 502.985 404.251 502.985C403.568 512.256 392.872 512.938 392.872 512.938C391.904 504.407 389.941 497.695 387.381 492.435C393.043 486.975 399.472 478.528 403.198 466.158C410.737 441.247 405.93 414.174 405.588 412.242C411.733 435.532 415.089 464.111 416.228 475.202Z" fill="#EAC1B0" fill-opacity="0.3"/>
</g>
</g>
<g style="mix-blend-mode:multiply">
<g style="mix-blend-mode:multiply">
<path d="M594.172 493.858C594.172 493.858 562.694 476.41 540.392 492.918C541.172 475.933 540.884 437.808 526.237 403.468C526.237 403.468 529.438 473.139 500.989 492.69C472.541 512.24 424.179 508.33 412.089 542.456H593.076C594.874 536.473 595.161 531.339 594.371 527.318C594.371 527.318 605.361 513.747 594.172 493.858Z" fill="#EAC1B0" fill-opacity="0.3"/>
</g>
</g>
<path d="M509.117 522.573C509.117 522.573 541.349 500.034 576.003 508.071C606.889 515.235 601.555 537.564 593.076 542.456H506.452L509.117 522.573Z" fill="#EAC1B0"/>
<path d="M511.069 523.132C511.069 523.132 496.392 514.211 484.585 504.191C483.369 503.159 481.804 502.641 480.211 502.74C474.287 503.11 459.204 504.209 448.697 506.325C447.333 506.6 446.34 507.804 446.348 509.194C446.358 510.875 446.645 513.157 447.861 515.091C447.861 515.091 450.463 518.087 454.072 520.134C454.072 520.134 452.649 522.147 452.543 523.143C452.437 524.139 453.646 527.44 455.369 528.278C455.369 528.278 454.765 529.221 455.044 530.861C455.322 532.502 456.826 534.929 458.105 535.216C459.384 535.503 461.745 535.552 461.745 535.552C461.745 535.552 460.631 537.499 460.687 538.864C460.742 540.229 462.926 542.426 464.393 542.834C465.861 543.241 476.127 542.372 478.104 541.776C480.082 541.181 484.254 536.54 484.254 536.54C484.254 536.54 499.572 543.559 512.14 542.833L511.069 523.132Z" fill="#EAC1B0"/>
<path d="M447.284 513.955L463.023 512.388C463.023 512.388 457.231 517.086 454.071 520.133C454.071 520.133 448.046 516.624 447.284 513.955Z" fill="#CE9F8D"/>
<path d="M484.255 536.539L478.643 534.359L471.011 539.444C471.011 539.444 477.451 535.309 483.275 537.585L484.255 536.539Z" fill="#CE9F8D"/>
<path d="M484.35 504.002C484.35 504.002 479.823 519.693 485.792 526.973C491.762 534.254 512.14 542.834 512.14 542.834C512.14 542.834 511.618 533.225 511.069 523.134C511.069 523.134 492.763 511.442 484.35 504.002Z" fill="#CE9F8D"/>
<path d="M455.506 528.075L468.507 518.539C468.878 518.266 469.402 518.346 469.674 518.718C469.947 519.09 469.866 519.613 469.495 519.885C469.475 519.9 469.454 519.914 469.433 519.927L455.643 528.281C455.585 528.317 455.509 528.298 455.473 528.24C455.44 528.184 455.455 528.112 455.506 528.075Z" fill="#CE9F8D"/>
<path d="M461.694 535.479L473.885 525.821C474.249 525.533 474.779 525.594 475.068 525.958C475.357 526.323 475.294 526.851 474.93 527.14C474.909 527.157 474.887 527.174 474.864 527.187L461.798 535.624C461.756 535.651 461.701 535.639 461.675 535.597C461.65 535.558 461.659 535.508 461.694 535.479Z" fill="#EAC1B0"/>
<path d="M356.628 474.028L309.615 534.355L355.511 534.22L392.871 513.471C392.871 513.471 401.077 471.02 356.628 474.028Z" fill="#EAC1B0"/>
<path d="M345.422 533.76C345.096 533.801 314.742 534.943 314.742 534.943C314.742 534.943 312.155 518.029 312.607 518.114C313.06 518.199 336.426 513.36 337.664 513.535C338.901 513.709 347.839 531.907 347.839 531.907L345.422 533.76Z" fill="#312A28"/>
<path d="M350.097 526.177L343.745 528.738C341.652 529.582 340.485 531.823 340.994 534.022C341.318 535.42 342.697 536.306 344.104 536.018L350.084 534.794L352.326 534.449C353.41 534.281 354.297 533.498 354.596 532.443C354.998 531.028 355.498 529.2 355.513 528.804C355.539 528.139 350.542 515.173 350.542 515.173L350.097 526.177Z" fill="#443835"/>
<path d="M312.451 512.317L313.897 511.988C314.615 511.824 315.262 511.432 315.738 510.87L317.319 509.01C317.983 508.228 318.964 507.787 319.99 507.809L321.921 507.85C322.976 507.873 323.983 507.405 324.646 506.584L325.584 505.423C326.325 504.506 327.489 504.037 328.661 504.184L332.426 504.656C333.029 504.731 333.642 504.645 334.2 504.404L338.796 502.424C338.796 502.424 350.456 506.359 351.09 519.203L350.495 525.149C350.356 526.532 349.324 527.66 347.959 527.918L343.365 528.791C342.322 528.99 341.3 528.358 341.011 527.337L338.717 519.224L340.096 527.448C340.341 528.908 339.413 530.306 337.973 530.649L334.379 531.505C332.851 531.868 331.321 530.912 330.981 529.38L328.707 519.167L330.052 529.775C330.231 531.181 329.235 532.466 327.829 532.644L324.445 533.073C323.259 533.224 322.14 532.487 321.809 531.338L318.448 519.664L320.852 531.243C321.087 532.381 320.413 533.509 319.299 533.84L316.405 534.699C315.142 535.074 313.812 534.372 313.409 533.12L309.253 520.2C308.853 518.959 308.875 517.621 309.316 516.394L309.999 514.489C310.392 513.395 311.317 512.576 312.451 512.317Z" fill="#443835"/>
<path d="M503.354 331.741C497.38 349.91 487.581 374.92 465.973 374.392C447.107 373.932 450.064 351.36 454.078 339.009C454.674 337.173 454.282 338.21 454.734 336.993C452.732 325.454 452.027 313.573 451.027 301.846C467.952 294.619 484.924 287.647 501.759 280.124C501.823 282.779 501.836 282.912 501.849 285.844C501.862 288.776 501.811 280.384 501.844 287.724C501.878 295.063 502.117 320.65 503.354 331.741Z" fill="#EAC1B0"/>
<path d="M454.293 338.117C454.188 338.796 454.593 337.237 454.713 337.057C452.758 325.375 452.015 313.608 451.026 301.845C467.974 294.579 484.878 287.728 501.796 280.055C501.796 280.055 502.357 280.456 501.098 289.086C498.41 301.391 484.453 347.571 454.293 338.117Z" fill="#CE9F8D"/>
<path d="M424.267 182.47C423.032 187.145 421.502 195.66 424.925 200.738C417.768 196.463 418.9 196.321 413.276 191.17C407.171 185.579 406.278 216.129 407.505 221.47C408.732 226.812 410.305 242.652 418.342 245.52C421.116 257.687 428.409 266.85 435.484 271.838C445.16 278.662 463.136 278.539 479.487 278.33C486.485 278.24 493.185 278.135 498.81 278.552C499.952 277.358 501.011 276.342 502.027 275.41C502.06 277.281 502.21 279.031 502.629 279.432C503.611 280.369 503.274 291.94 503.274 291.94C503.274 291.94 507.359 281.453 507.488 276.102C507.551 273.497 507.596 271.641 507.625 270.415C509.284 268.868 510.994 267.113 512.927 264.72C517.713 258.795 521.99 248.108 524.254 239.651C524.847 242.753 525.117 245.036 525.117 245.036C526.594 233.5 526.407 228.152 525.819 225.704C525.198 222.214 523.276 219.432 519.009 218.342C525.23 210.133 517.264 195.968 517.264 195.968C517.776 199.563 517.157 203.704 516.379 207.027C515.992 204.242 515.315 201.568 513.33 198.98C508.133 188.864 486.434 184.468 486.434 184.468C487.749 185.011 490.098 187.14 492.607 189.693C483.318 188.793 472.508 190.152 462.087 193.05C452.042 195.845 434.746 185.44 428.044 181.033C427.655 180.777 427.229 180.646 426.807 180.623C425.683 180.564 424.583 181.275 424.267 182.47Z" fill="url(#paint5_linear_208_2)"/>
<path d="M500.241 272.638C492.596 264.828 490.659 250.493 497.359 244.242C487.977 252.994 463.462 248.678 463.462 248.678C463.462 248.678 469.443 246.78 471.061 241.004C471.061 241.004 443.093 244.868 437.739 248.18C437.739 248.18 437.647 242.905 443.241 238.782C436.164 238.966 430.367 240.146 429.79 243.444C428.243 252.279 430.853 304.418 447.701 317.548C464.549 330.678 485.467 312.737 493.729 303.768C501.991 294.798 498.78 291.215 503.453 283.423C509.889 281.297 512.348 282.344 514.314 270.45C516.28 258.557 506.085 254.408 500.241 272.638Z" fill="#EAC1B0"/>
<path d="M389.776 534.22H226.929C225.945 534.22 225.148 535.017 225.148 536.001V541.311C225.148 542.294 225.945 543.092 226.929 543.092H389.776C390.76 543.092 391.556 542.294 391.556 541.311V536.001C391.556 535.017 390.76 534.22 389.776 534.22Z" fill="#182960"/>
<path d="M268.731 412.185H130.689C124.441 412.185 120.147 418.515 122.416 424.381L162.737 528.649C164.065 532.085 167.35 534.348 171.009 534.348H313.924C317.828 534.348 320.511 530.392 319.093 526.726L277.003 417.883C275.675 414.448 272.39 412.185 268.731 412.185Z" fill="#42AAFF"/>
<path d="M129.82 414.712C123.652 414.712 119.414 420.911 121.653 426.656L161.458 528.761C162.769 532.126 166.012 534.342 169.625 534.342H310.709C314.563 534.342 317.212 530.468 315.813 526.878L274.262 420.293C272.95 416.928 269.707 414.712 266.094 414.712H129.82Z" fill="url(#paint6_linear_208_2)"/>
<g style="mix-blend-mode:overlay" opacity="0.66">
<g style="mix-blend-mode:overlay">
<path d="M224.964 475.468C228.277 483.532 226.442 491.925 220.867 494.214C215.291 496.502 208.086 491.82 204.773 483.756C201.46 475.692 203.295 467.299 208.869 465.01C214.445 462.721 221.651 467.403 224.964 475.468Z" fill="#E3EBF7"/>
</g>
</g>
<path d="M317.705 534.22H167.761C166.782 534.22 165.988 535.013 165.988 535.992V541.32C165.988 542.298 166.782 543.092 167.761 543.092H317.705C318.683 543.092 319.477 542.298 319.477 541.32V535.992C319.477 535.013 318.683 534.22 317.705 534.22Z" fill="#3756C2"/>
<path d="M760.937 552.535H68.2197V542.988H760.937V552.535ZM760.937 552.535H607.315V542.988H760.937V552.535Z" fill="#29C3FF"/>
<path d="M760.937 552.535H607.315V542.988H760.937V552.535Z" fill="#299FFF"/>
<path d="M556.345 535.168H410.311V542.988H556.345V535.168ZM511.303 535.168H556.346V542.988H511.303V535.168Z" fill="#ABDAF7"/>
<path d="M511.303 535.168H556.346V542.988H511.303V535.168Z" fill="#6FB1DD"/>
</g>
<defs>
<linearGradient id="paint0_linear_208_2" x1="402.194" y1="299.99" x2="479.167" y2="634.377" gradientUnits="userSpaceOnUse">
<stop offset="0.01" stop-color="#1D1D1D"/>
<stop offset="0.41" stop-color="#1D1D1D"/>
<stop offset="1"/>
</linearGradient>
<linearGradient id="paint1_linear_208_2" x1="165.511" y1="535.397" x2="41.5392" y2="398.334" gradientUnits="userSpaceOnUse">
<stop stop-color="#6956AB"/>
<stop offset="0.41" stop-color="#867FC0"/>
<stop offset="1" stop-color="#A4A8D5"/>
</linearGradient>
<linearGradient id="paint2_linear_208_2" x1="169.186" y1="549.402" x2="100.473" y2="449.085" gradientUnits="userSpaceOnUse">
<stop stop-color="#6956AB"/>
<stop offset="0.41" stop-color="#867FC0"/>
<stop offset="1" stop-color="#A4A8D5"/>
</linearGradient>
<linearGradient id="paint3_linear_208_2" x1="127.551" y1="547.208" x2="167.737" y2="520.884" gradientUnits="userSpaceOnUse">
<stop stop-color="#666666"/>
<stop offset="0.41" stop-color="#414141"/>
<stop offset="1" stop-color="#1C1C1C"/>
</linearGradient>
<linearGradient id="paint4_linear_208_2" x1="509.821" y1="402.155" x2="323.832" y2="401.181" gradientUnits="userSpaceOnUse">
<stop stop-color="#F04C4A"/>
<stop offset="0.41" stop-color="#F04C4A"/>
<stop offset="1" stop-color="#F04C4A"/>
</linearGradient>
<linearGradient id="paint5_linear_208_2" x1="522.228" y1="236.8" x2="417.576" y2="205.517" gradientUnits="userSpaceOnUse">
<stop stop-color="#494544"/>
<stop offset="0.41" stop-color="#393838"/>
<stop offset="1" stop-color="#2C2C2C"/>
</linearGradient>
<linearGradient id="paint6_linear_208_2" x1="201.573" y1="409.633" x2="207.006" y2="539.268" gradientUnits="userSpaceOnUse">
<stop stop-color="#3997DE"/>
<stop offset="0.41" stop-color="#3574CD"/>
<stop offset="1" stop-color="#3150BC"/>
</linearGradient>
<clipPath id="clip0_208_2">
<rect width="820" height="567" fill="white"/>
</clipPath>
</defs>
</svg>
